<svg width="107" height="31" viewBox="0 0 107 31" fill="none" xmlns="http://www.w3.org/2000/svg">
<path d="M1.13165 14.96C1.13165 13.5733 1.43165 12.34 2.03165 11.26C2.63165 10.1667 3.46499 9.32 4.53165 8.72C5.61165 8.10667 6.83165 7.8 8.19165 7.8C9.85832 7.8 11.285 8.24 12.4717 9.12C13.6583 10 14.4517 11.2 14.8517 12.72H11.0917C10.8117 12.1333 10.4117 11.6867 9.89165 11.38C9.38499 11.0733 8.80499 10.92 8.15165 10.92C7.09832 10.92 6.24499 11.2867 5.59165 12.02C4.93832 12.7533 4.61165 13.7333 4.61165 14.96C4.61165 16.1867 4.93832 17.1667 5.59165 17.9C6.24499 18.6333 7.09832 19 8.15165 19C8.80499 19 9.38499 18.8467 9.89165 18.54C10.4117 18.2333 10.8117 17.7867 11.0917 17.2H14.8517C14.4517 18.72 13.6583 19.92 12.4717 20.8C11.285 21.6667 9.85832 22.1 8.19165 22.1C6.83165 22.1 5.61165 21.8 4.53165 21.2C3.46499 20.5867 2.63165 19.74 2.03165 18.66C1.43165 17.58 1.13165 16.3467 1.13165 14.96ZM20.366 12.7C20.766 12.0867 21.266 11.6067 21.866 11.26C22.466 10.9 23.1327 10.72 23.866 10.72V14.34H22.926C22.0727 14.34 21.4327 14.5267 21.006 14.9C20.5794 15.26 20.366 15.9 20.366 16.82V22H16.946V10.84H20.366V12.7ZM24.8207 16.4C24.8207 15.2533 25.034 14.2467 25.4607 13.38C25.9007 12.5133 26.494 11.8467 27.2407 11.38C27.9874 10.9133 28.8207 10.68 29.7407 10.68C30.5274 10.68 31.214 10.84 31.8007 11.16C32.4007 11.48 32.8607 11.9 33.1807 12.42V10.84H36.6007V22H33.1807V20.42C32.8474 20.94 32.3807 21.36 31.7807 21.68C31.194 22 30.5074 22.16 29.7207 22.16C28.814 22.16 27.9874 21.9267 27.2407 21.46C26.494 20.98 25.9007 20.3067 25.4607 19.44C25.034 18.56 24.8207 17.5467 24.8207 16.4ZM33.1807 16.42C33.1807 15.5667 32.9407 14.8933 32.4607 14.4C31.994 13.9067 31.4207 13.66 30.7407 13.66C30.0607 13.66 29.4807 13.9067 29.0007 14.4C28.534 14.88 28.3007 15.5467 28.3007 16.4C28.3007 17.2533 28.534 17.9333 29.0007 18.44C29.4807 18.9333 30.0607 19.18 30.7407 19.18C31.4207 19.18 31.994 18.9333 32.4607 18.44C32.9407 17.9467 33.1807 17.2733 33.1807 16.42ZM44.6749 13.68H42.8349V22H39.4149V13.68H38.1749V10.84H39.4149V10.52C39.4149 9.14667 39.8083 8.10667 40.5949 7.4C41.3816 6.68 42.5349 6.32 44.0549 6.32C44.3083 6.32 44.4949 6.32667 44.6149 6.34V9.24C43.9616 9.2 43.5016 9.29333 43.2349 9.52C42.9683 9.74667 42.8349 10.1533 42.8349 10.74V10.84H44.6749V13.68ZM52.502 19.1V22H50.762C49.522 22 48.5553 21.7 47.862 21.1C47.1686 20.4867 46.822 19.4933 46.822 18.12V13.68H45.462V10.84H46.822V8.12H50.242V10.84H52.482V13.68H50.242V18.16C50.242 18.4933 50.322 18.7333 50.482 18.88C50.642 19.0267 50.9086 19.1 51.282 19.1H52.502ZM65.807 10.84L58.807 27.3H55.127L57.687 21.62L53.147 10.84H56.967L59.547 17.82L62.107 10.84H65.807Z" fill="#07AEAF"/>
<path d="M77.0427 14.8C77.8561 14.9733 78.5094 15.38 79.0027 16.02C79.4961 16.6467 79.7427 17.3667 79.7427 18.18C79.7427 19.3533 79.3294 20.2867 78.5027 20.98C77.6894 21.66 76.5494 22 75.0827 22H68.5427V7.96H74.8627C76.2894 7.96 77.4027 8.28667 78.2027 8.94C79.0161 9.59333 79.4227 10.48 79.4227 11.6C79.4227 12.4267 79.2027 13.1133 78.7627 13.66C78.3361 14.2067 77.7627 14.5867 77.0427 14.8ZM71.9627 13.64H74.2027C74.7627 13.64 75.1894 13.52 75.4827 13.28C75.7894 13.0267 75.9427 12.66 75.9427 12.18C75.9427 11.7 75.7894 11.3333 75.4827 11.08C75.1894 10.8267 74.7627 10.7 74.2027 10.7H71.9627V13.64ZM74.4827 19.24C75.0561 19.24 75.4961 19.1133 75.8027 18.86C76.1227 18.5933 76.2827 18.2133 76.2827 17.72C76.2827 17.2267 76.1161 16.84 75.7827 16.56C75.4627 16.28 75.0161 16.14 74.4427 16.14H71.9627V19.24H74.4827ZM81.0463 16.4C81.0463 15.2533 81.2597 14.2467 81.6863 13.38C82.1263 12.5133 82.7197 11.8467 83.4663 11.38C84.213 10.9133 85.0463 10.68 85.9663 10.68C86.753 10.68 87.4397 10.84 88.0263 11.16C88.6263 11.48 89.0863 11.9 89.4063 12.42V10.84H92.8263V22H89.4063V20.42C89.073 20.94 88.6063 21.36 88.0063 21.68C87.4197 22 86.733 22.16 85.9463 22.16C85.0397 22.16 84.213 21.9267 83.4663 21.46C82.7197 20.98 82.1263 20.3067 81.6863 19.44C81.2597 18.56 81.0463 17.5467 81.0463 16.4ZM89.4063 16.42C89.4063 15.5667 89.1663 14.8933 88.6863 14.4C88.2197 13.9067 87.6463 13.66 86.9663 13.66C86.2863 13.66 85.7063 13.9067 85.2263 14.4C84.7597 14.88 84.5263 15.5467 84.5263 16.4C84.5263 17.2533 84.7597 17.9333 85.2263 18.44C85.7063 18.9333 86.2863 19.18 86.9663 19.18C87.6463 19.18 88.2197 18.9333 88.6863 18.44C89.1663 17.9467 89.4063 17.2733 89.4063 16.42ZM106.701 10.84L99.7005 27.3H96.0205L98.5805 21.62L94.0405 10.84H97.8605L100.441 17.82L103.001 10.84H106.701Z" fill="#FE9900"/>
</svg>
